<svg id="Capa_2" data-name="Capa 2" xmlns="http://www.w3.org/2000/svg" viewBox="0 0 782.29 442"><defs><style>.cls-1{fill:#fff;}</style></defs><title>logo</title><rect class="cls-1" x="391.29" width="135" height="442"/><polygon class="cls-1" points="135 0 0 0 112.65 221 180.15 88.57 135 0"/><polygon class="cls-1" points="180.15 353.43 225.29 442 360.29 442 247.65 221 180.15 353.43"/><path class="cls-1" d="M435.86,307.5,338,499.42l-67.5,132.43L231,709.5h-90.1l97.82-191.92,67.5-132.43,39.58-77.66h90.1m32.64-20h-135l-45.15,88.57L220.85,508.5l-112.65,221h135l45.15-88.57,67.5-132.43,112.65-221Z" transform="translate(-108.21 -287.5)"/><path class="cls-1" d="M857.86,307.5,760,499.42l-4.63,9.08,4.63,9.08L857.86,709.5h-90.1l-39.58-77.66L665.3,508.5l62.87-123.34,39.58-77.66h90.1m32.64-20h-135l-45.15,88.57L642.85,508.5l67.5,132.43L755.5,729.5h135l-112.65-221,112.65-221Z" transform="translate(-108.21 -287.5)"/></svg>